<?xml version="1.0" encoding="UTF-8" standalone="no"?><!DOCTYPE svg PUBLIC "-//W3C//DTD SVG 1.1//EN" "http://www.w3.org/Graphics/SVG/1.1/DTD/svg11.dtd"><svg width="100%" height="100%" viewBox="0 0 480 480" version="1.1" xmlns="http://www.w3.org/2000/svg" xmlns:xlink="http://www.w3.org/1999/xlink" xml:space="preserve" xmlns:serif="http://www.serif.com/" style="fill-rule:evenodd;clip-rule:evenodd;stroke-linejoin:round;stroke-miterlimit:1.41421;"><g><path d="M182.575,451.838c-0.098,-0.519 2.242,-12.692 5.225,-27.136c2.896,-14.428 7.127,-35.019 9.282,-45.814c2.171,-10.709 5.335,-26.083 7.049,-34.018c1.627,-7.92 3.221,-16.012 3.584,-17.872l0.499,-3.497l-27.649,5.259l-27.736,5.275l2.293,9.233c1.229,5.048 3.452,14.384 4.927,20.729c4.574,19.811 11.971,51.172 15.76,66.387c1.977,8.04 4.052,16.598 4.529,19.104c0.542,2.851 1.183,4.341 1.636,3.897c0.469,-0.358 0.683,-1.115 0.601,-1.547Z" style="fill:#fff;"/><path d="M437.045,332.892c-1.732,-1.103 -8.539,-5.359 -15.298,-9.356c-6.689,-4.099 -19.568,-12.035 -28.708,-17.728c-9.124,-5.606 -27.594,-17.045 -41.09,-25.4l-24.455,-15.135l0.401,4.937c0.164,2.744 1.63,11.866 3.138,20.264l2.822,15.309l-3.032,1.472c-1.733,0.778 -5.58,2.673 -8.629,4.059l-5.58,2.673l5.373,0.947c2.876,0.528 13.433,2.37 23.319,3.981c9.902,1.698 23.491,3.948 30.053,5.028c6.665,1.15 21.183,3.581 32.377,5.481c11.178,1.813 22.837,3.804 25.902,4.385c3.065,0.581 5.768,1.141 6.027,1.092c0.19,0.053 -0.974,-0.889 -2.62,-2.009Z" style="fill:#fff;"/><path d="M79.413,354.265c2.173,-1.757 13.35,-10.776 24.856,-19.947c27.254,-21.926 27.184,-21.823 26.835,-23.189c-0.436,-1.35 -8.021,-21.931 -9.234,-25.013c-0.842,-2.078 -0.25,-2.728 11.018,-12.212l11.893,-9.962l32.833,-6.244c37.326,-7.099 33.603,-5.496 32.342,-14.477c-0.748,-4.872 -0.78,-5.045 -2.685,-4.235c-1.733,0.777 -10.764,3.659 -58.156,19.029l-14.932,4.809l-34.409,48.802c-18.9,26.783 -35.932,51.151 -37.874,54.117l-3.466,5.314l8.551,-6.819c4.745,-3.767 10.342,-8.234 12.428,-9.973Z" style="fill:#fff;"/><path d="M310.69,312.965c14.867,-7.036 18.439,-8.968 18.587,-10.071c0.058,-0.638 -2.604,-16.515 -5.997,-35.298c-3.976,-22.79 -6.072,-32.866 -6.097,-30.175c-0.296,13.038 -1.637,56.356 -1.868,58.907c-0.136,1.637 -2.21,2.032 -6.464,1.319c-1.205,-0.219 -2.485,1.994 -5.89,9.983c-2.417,5.653 -4.36,10.499 -4.294,10.844c0.049,0.259 0.654,0.144 1.382,-0.263c0.712,-0.493 5.547,-2.845 10.641,-5.246Z" style="fill:#fff;"/><path d="M299.834,306.255c2.471,-5.841 3.381,-9.058 2.657,-9.1c-12.565,-1.102 -11.816,-1.871 -9.565,9.966c1.101,5.79 2.203,9.698 2.553,9.184c0.247,-0.584 2.256,-5.084 4.355,-10.05Z" style="fill:#fff;"/><path d="M288.451,302.422l-1.216,-6.394l-3.809,-0.26c-2.173,-0.124 -8.981,-0.62 -15.256,-1.128c-6.274,-0.508 -13.083,-1.003 -15.082,-1.16c-3.258,-0.186 -4.065,-0.66 -6.105,-3.853c-2.381,-3.576 -2.483,-3.646 -16.973,-7.336l-14.576,-3.674l-1.992,-11.887l-1.992,-11.886l-32.574,6.195l-32.488,6.179l-9.181,7.744c-8.415,7.062 -10.473,9.423 -7.967,8.947c0.518,-0.099 6.134,0.713 12.593,1.723c6.475,1.096 20.048,3.26 30.209,4.908c65.932,10.559 83.121,13.378 98.363,15.851c9.421,1.521 17.621,2.737 18.226,2.622c0.707,-0.045 0.708,-1.925 -0.18,-6.591Z" style="fill:#fff;"/><path d="M212.517,309.88l1.241,-9.01l-2.135,-0.399c-1.206,-0.219 -5.632,-0.899 -9.886,-1.612c-4.238,-0.626 -16.432,-2.604 -27.145,-4.327c-32.517,-5.275 -47.797,-7.473 -48.093,-7.148c-0.054,0.19 0.546,2.403 1.558,4.897c0.925,2.51 4.711,12.533 8.448,22.297l6.681,17.71l34.096,-6.664l33.994,-6.734l1.241,-9.01Z" style="fill:#fff;"/><path d="M305.841,293.116c-1.127,-1.218 -54.55,-46.745 -59.087,-50.358l-3.167,-2.531l1.31,7.36c0.772,4.061 2.616,15.17 4.165,24.724l2.682,17.396l11.272,0.9c23.891,1.813 30.527,2.341 36.715,2.865c3.551,0.31 6.463,0.562 6.636,0.529c0.189,0.053 -0.082,-0.432 -0.526,-0.885Z" style="fill:#fff;"/><path d="M312.513,280.656c0.059,-4.398 0.226,-12.935 0.475,-19.16c0.162,-6.208 0.361,-12.692 0.308,-14.383c-0.053,-1.691 0.063,-4.847 0.187,-7.019c0.108,-2.259 -0.167,-4.176 -0.681,-4.526c-0.704,-0.403 -25.084,-1.496 -26.985,-1.135c-0.951,0.181 0.131,2.572 15.888,34.581c2.335,4.748 5.415,11.056 6.903,14.175c1.386,3.049 2.829,5.461 3.175,5.395c0.346,-0.066 0.655,-3.616 0.73,-7.928Z" style="fill:#fff;"/><path d="M304.42,282.822c-1.455,-2.946 -5.127,-10.485 -8.121,-16.809c-3.08,-6.308 -7.056,-14.505 -8.902,-18.093c-1.863,-3.674 -3.536,-7.295 -3.684,-8.073c-0.148,-0.778 -0.522,-1.333 -0.868,-1.267c-0.864,0.164 -4.551,17.965 -3.992,19.023c0.679,1.214 27.927,31.037 28.051,30.745c0.14,-0.206 -0.958,-2.683 -2.484,-5.526Z" style="fill:#fff;"/><path d="M240.279,239.781c-2.218,-13.544 -4.219,-24.534 -4.564,-24.468c-1.21,0.23 -22.395,16.882 -22.28,17.487c0.148,0.778 2.937,5.082 26.752,40.393l6.482,9.6l-1.224,-9.257c-0.607,-5.077 -2.965,-20.296 -5.166,-33.755Z" style="fill:#fff;"/><path d="M238.376,276.85c-1.649,-2.551 -8.028,-12.081 -14.151,-21.213l-11.211,-16.579l1.355,9.949c0.776,5.492 1.889,13.696 2.587,18.309l1.145,8.377l11.03,2.915c6.023,1.541 11.288,2.867 11.634,2.801c0.362,0.021 -0.756,-2.094 -2.389,-4.559Z" style="fill:#fff;"/><path d="M329.359,244.953c-1.421,-10.294 -3.088,-21.884 -3.708,-25.616l-1.056,-6.962l-3.163,-1.099c-1.736,-0.655 -3.39,-0.877 -3.583,-0.482c-0.21,0.308 1.477,11.536 3.749,24.892l4.186,24.361l2.895,2.046c1.662,1.206 3.069,2.013 3.123,1.823c0.07,-0.102 -1.022,-8.669 -2.443,-18.963Z" style="fill:#fff;"/><path d="M280.92,265.178c-3.38,-3.655 -6.247,-6.959 -6.313,-7.305c-0.082,-0.432 0.643,-4.151 1.665,-8.195c1.684,-6.677 1.713,-7.936 0.398,-11.088l-1.468,-3.481l-13.269,2.255l-13.269,2.255l18.925,16.187c10.369,8.861 18.995,16.083 19.168,16.051c0.172,-0.033 -2.456,-3.025 -5.837,-6.679Z" style="fill:#fff;"/><path d="M314.063,211.603c-1.836,-10.126 -2.054,-10.8 -8.243,-22.158c-3.474,-6.501 -8.372,-15.776 -11.016,-20.734c-2.628,-4.872 -10.305,-19.348 -17.205,-32.092c-6.814,-12.76 -13.525,-25.45 -14.861,-28.24c-1.439,-2.86 -2.763,-5.115 -2.936,-5.082c-0.691,0.131 -25.771,25.493 -25.985,26.25c-0.107,0.378 1.619,7.57 3.764,16.026c3.564,13.557 4.587,16.586 9.246,25.548c5.083,9.777 9.688,18.928 15.239,30.227c1.456,2.946 4.199,8.423 6.181,12.254c1.895,3.847 5.028,9.966 6.821,13.744c3.606,7.192 4.75,8.497 5.055,5.395c0.28,-2.292 1.075,-2.353 22.11,-1.43l14.433,0.568l-0.402,-4.938c-0.164,-2.744 -1.203,-9.619 -2.201,-15.338Z" style="fill:#fff;"/><path d="M272.574,230.237c-0.407,-0.728 -2.405,-4.646 -4.453,-8.822c-5.617,-11.645 -11.699,-23.38 -12.213,-23.73c-0.222,-0.227 -4.094,2.479 -8.645,5.852l-8.218,6.218l2.337,13.701l2.321,13.615l14.861,-2.826c12.961,-2.465 14.656,-2.967 14.01,-4.008Z" style="fill:#fff;"/><path d="M287.576,121.292c4.025,-2.377 10.72,-6.246 14.917,-8.656c8.653,-4.869 8.369,-4.009 4.492,-13.568l-1.702,-4.242l-8.928,1.071c-4.888,0.661 -14.339,2.28 -20.959,3.718l-12.134,2.576l6.765,12.501c7.731,14.287 5.702,13.509 17.549,6.6Z" style="fill:#fff;"/><path d="M276.378,88.774c-1.907,-6.262 -9.754,-33.867 -15.997,-55.867c-1.603,-5.604 -3.025,-10.258 -3.144,-10.414c-0.309,-0.21 2.902,21.382 7.19,47.694c1.319,8.344 2.678,17.844 3.043,21.177l0.669,5.871l10.109,-1.923l-1.87,-6.538Z" style="fill:#fff;"/></g><path d="M240.091,-0.092c132.409,0.025 239.889,107.606 239.863,240.091c-0.025,132.486 -107.545,240.026 -239.954,240.001c-132.409,-0.025 -239.888,-107.607 -239.863,-240.092c0.025,-132.485 107.545,-240.026 239.954,-240Zm-0.004,21.977c120.287,0.023 217.926,97.755 217.903,218.11c-0.023,120.356 -97.699,218.051 -217.986,218.028c-120.286,-0.023 -217.925,-97.755 -217.903,-218.111c0.023,-120.355 97.699,-218.05 217.986,-218.027Z" style="fill:#fff;"/></svg>